ply
format ascii 1.0
element vertex 289
property float x
property float y
property float z
property float red
property float green
property float blue
property float nx
property float ny
property float nz
element face 512
property list uint int vertex_index
end_header
1.000000 0.000000 1.000000 195.000000 157.000000 146.000000 143.000000 110.000000 252.000000 
-1.000000 0.000000 1.000000 183.000000 156.000000 145.000000 129.000000 121.000000 254.000000 
1.000000 0.000000 -1.000000 195.000000 157.000000 146.000000 143.000000 110.000000 252.000000 
-1.000000 0.000000 -1.000000 195.000000 157.000000 146.000000 143.000000 110.000000 252.000000 
0.000000 0.000000 1.000000 195.000000 157.000000 146.000000 146.000000 124.000000 253.000000 
0.000000 0.000000 -1.000000 183.000000 156.000000 145.000000 129.000000 121.000000 254.000000 
-1.000000 0.000000 0.000000 195.000000 157.000000 146.000000 143.000000 110.000000 252.000000 
1.000000 0.000000 0.000000 185.000000 147.000000 136.000000 145.000000 131.000000 253.000000 
0.000000 0.000000 0.000000 172.000000 134.000000 123.000000 152.000000 135.000000 251.000000 
-0.500000 0.000000 1.000000 195.000000 157.000000 146.000000 146.000000 124.000000 253.000000 
-0.500000 0.000000 -1.000000 183.000000 156.000000 145.000000 129.000000 121.000000 254.000000 
-1.000000 0.000000 0.500000 185.000000 147.000000 136.000000 145.000000 131.000000 253.000000 
1.000000 0.000000 -0.500000 183.000000 156.000000 145.000000 129.000000 121.000000 254.000000 
0.500000 0.000000 -0.500000 172.000000 134.000000 123.000000 152.000000 135.000000 251.000000 
0.500000 0.000000 1.000000 195.000000 157.000000 146.000000 146.000000 124.000000 253.000000 
0.500000 0.000000 -1.000000 183.000000 156.000000 145.000000 129.000000 121.000000 254.000000 
-1.000000 0.000000 -0.500000 185.000000 147.000000 136.000000 145.000000 131.000000 253.000000 
1.000000 0.000000 0.500000 183.000000 156.000000 145.000000 129.000000 121.000000 254.000000 
-0.500000 0.000000 0.500000 178.000000 141.000000 123.000000 125.000000 133.000000 254.000000 
0.500000 0.000000 0.000000 175.000000 137.000000 126.000000 152.000000 132.000000 252.000000 
0.000000 0.000000 0.500000 172.000000 134.000000 123.000000 152.000000 135.000000 251.000000 
0.500000 0.000000 0.500000 167.000000 116.000000 97.000000 127.000000 138.000000 254.000000 
0.000000 0.000000 -0.500000 181.000000 144.000000 126.000000 142.000000 149.000000 251.000000 
-0.500000 0.000000 -0.500000 172.000000 134.000000 123.000000 152.000000 135.000000 251.000000 
-0.500000 0.000000 0.000000 172.000000 134.000000 123.000000 152.000000 135.000000 251.000000 
-0.750000 0.000000 1.000000 185.000000 147.000000 136.000000 145.000000 131.000000 253.000000 
-0.750000 0.000000 -1.000000 183.000000 156.000000 145.000000 129.000000 121.000000 254.000000 
-1.000000 0.000000 0.750000 187.000000 154.000000 147.000000 117.000000 122.000000 254.000000 
1.000000 0.000000 -0.750000 183.000000 156.000000 145.000000 129.000000 121.000000 254.000000 
0.750000 0.000000 -0.750000 181.000000 144.000000 126.000000 142.000000 149.000000 251.000000 
0.750000 0.000000 1.000000 172.000000 134.000000 123.000000 152.000000 135.000000 251.000000 
0.750000 0.000000 -1.000000 183.000000 156.000000 145.000000 129.000000 121.000000 254.000000 
-1.000000 0.000000 -0.750000 183.000000 156.000000 145.000000 129.000000 121.000000 254.000000 
1.000000 0.000000 0.750000 183.000000 156.000000 145.000000 129.000000 121.000000 254.000000 
-0.750000 0.000000 0.750000 175.000000 137.000000 126.000000 152.000000 132.000000 252.000000 
0.750000 0.000000 0.000000 181.000000 144.000000 126.000000 142.000000 149.000000 251.000000 
0.000000 0.000000 0.750000 172.000000 134.000000 123.000000 152.000000 135.000000 251.000000 
0.250000 0.000000 0.750000 172.000000 134.000000 123.000000 152.000000 135.000000 251.000000 
0.000000 0.000000 -0.250000 172.000000 134.000000 123.000000 152.000000 135.000000 251.000000 
-0.750000 0.000000 -0.250000 172.000000 134.000000 123.000000 152.000000 135.000000 251.000000 
-0.750000 0.000000 0.000000 172.000000 134.000000 123.000000 152.000000 135.000000 251.000000 
-0.250000 0.000000 1.000000 195.000000 157.000000 146.000000 146.000000 124.000000 253.000000 
-0.250000 0.000000 -1.000000 183.000000 156.000000 145.000000 129.000000 121.000000 254.000000 
-1.000000 0.000000 0.250000 172.000000 134.000000 123.000000 152.000000 135.000000 251.000000 
1.000000 0.000000 -0.250000 185.000000 147.000000 136.000000 145.000000 131.000000 253.000000 
0.250000 0.000000 -0.250000 185.000000 147.000000 136.000000 145.000000 131.000000 253.000000 
0.250000 0.000000 1.000000 195.000000 157.000000 146.000000 146.000000 124.000000 253.000000 
0.250000 0.000000 -1.000000 183.000000 156.000000 145.000000 129.000000 121.000000 254.000000 
-1.000000 0.000000 -0.250000 185.000000 147.000000 136.000000 145.000000 131.000000 253.000000 
1.000000 0.000000 0.250000 183.000000 156.000000 145.000000 129.000000 121.000000 254.000000 
-0.250000 0.000000 0.250000 153.000000 115.000000 104.000000 158.000000 128.000000 250.000000 
0.250000 0.000000 0.000000 172.000000 134.000000 123.000000 152.000000 135.000000 251.000000 
0.000000 0.000000 0.250000 185.000000 147.000000 136.000000 145.000000 131.000000 253.000000 
0.750000 0.000000 0.250000 181.000000 144.000000 126.000000 142.000000 149.000000 251.000000 
0.000000 0.000000 -0.750000 172.000000 134.000000 123.000000 152.000000 135.000000 251.000000 
-0.250000 0.000000 -0.750000 175.000000 137.000000 126.000000 152.000000 132.000000 252.000000 
-0.250000 0.000000 0.000000 195.000000 157.000000 146.000000 146.000000 124.000000 253.000000 
-0.250000 0.000000 0.500000 172.000000 134.000000 123.000000 152.000000 135.000000 251.000000 
-0.500000 0.000000 0.750000 172.000000 134.000000 123.000000 152.000000 135.000000 251.000000 
-0.250000 0.000000 0.750000 172.000000 134.000000 123.000000 152.000000 135.000000 251.000000 
-0.500000 0.000000 -0.750000 181.000000 144.000000 126.000000 142.000000 149.000000 251.000000 
-0.750000 0.000000 -0.750000 181.000000 144.000000 126.000000 142.000000 149.000000 251.000000 
-0.750000 0.000000 -0.500000 172.000000 134.000000 123.000000 152.000000 135.000000 251.000000 
0.750000 0.000000 -0.500000 181.000000 144.000000 126.000000 142.000000 149.000000 251.000000 
0.500000 0.000000 -0.250000 181.000000 144.000000 126.000000 142.000000 149.000000 251.000000 
0.750000 0.000000 -0.250000 181.000000 144.000000 126.000000 142.000000 149.000000 251.000000 
0.500000 0.000000 0.250000 181.000000 144.000000 126.000000 142.000000 149.000000 251.000000 
0.250000 0.000000 0.250000 181.000000 144.000000 126.000000 142.000000 149.000000 251.000000 
0.250000 0.000000 0.500000 172.000000 134.000000 123.000000 152.000000 135.000000 251.000000 
0.750000 0.000000 0.500000 181.000000 144.000000 126.000000 142.000000 149.000000 251.000000 
0.500000 0.000000 0.750000 175.000000 137.000000 126.000000 152.000000 132.000000 252.000000 
0.750000 0.000000 0.750000 181.000000 144.000000 126.000000 142.000000 149.000000 251.000000 
0.500000 0.000000 -0.750000 172.000000 134.000000 123.000000 152.000000 135.000000 251.000000 
0.250000 0.000000 -0.750000 175.000000 137.000000 126.000000 152.000000 132.000000 252.000000 
0.250000 0.000000 -0.500000 181.000000 144.000000 126.000000 142.000000 149.000000 251.000000 
-0.250000 0.000000 -0.250000 184.000000 146.000000 143.000000 108.000000 128.000000 253.000000 
-0.250000 0.000000 -0.500000 195.000000 157.000000 146.000000 146.000000 124.000000 253.000000 
-0.500000 0.000000 -0.250000 172.000000 134.000000 123.000000 152.000000 135.000000 251.000000 
-0.500000 0.000000 0.250000 172.000000 134.000000 123.000000 152.000000 135.000000 251.000000 
-0.750000 0.000000 0.250000 185.000000 147.000000 136.000000 145.000000 131.000000 253.000000 
-0.750000 0.000000 0.500000 195.000000 157.000000 146.000000 146.000000 124.000000 253.000000 
-0.875000 0.000000 1.000000 174.000000 134.000000 134.000000 108.000000 129.000000 253.000000 
-0.875000 0.000000 -1.000000 183.000000 156.000000 145.000000 129.000000 121.000000 254.000000 
-1.000000 0.000000 0.875000 184.000000 149.000000 145.000000 110.000000 123.000000 253.000000 
1.000000 0.000000 -0.875000 183.000000 156.000000 145.000000 129.000000 121.000000 254.000000 
0.875000 0.000000 -0.875000 175.000000 137.000000 126.000000 152.000000 132.000000 252.000000 
0.875000 0.000000 1.000000 184.000000 146.000000 143.000000 108.000000 128.000000 253.000000 
0.875000 0.000000 -1.000000 183.000000 156.000000 145.000000 129.000000 121.000000 254.000000 
-1.000000 0.000000 -0.875000 183.000000 156.000000 145.000000 129.000000 121.000000 254.000000 
1.000000 0.000000 0.875000 183.000000 156.000000 145.000000 129.000000 121.000000 254.000000 
-0.875000 0.000000 0.875000 195.000000 157.000000 146.000000 146.000000 124.000000 253.000000 
0.875000 0.000000 0.000000 181.000000 144.000000 126.000000 142.000000 149.000000 251.000000 
0.000000 0.000000 0.875000 181.000000 144.000000 126.000000 142.000000 149.000000 251.000000 
0.125000 0.000000 0.875000 172.000000 134.000000 123.000000 152.000000 135.000000 251.000000 
0.000000 0.000000 -0.125000 175.000000 137.000000 126.000000 152.000000 132.000000 252.000000 
-0.875000 0.000000 -0.125000 172.000000 134.000000 123.000000 152.000000 135.000000 251.000000 
-0.875000 0.000000 0.000000 181.000000 144.000000 126.000000 142.000000 149.000000 251.000000 
-0.125000 0.000000 1.000000 185.000000 147.000000 136.000000 145.000000 131.000000 253.000000 
-0.125000 0.000000 -1.000000 183.000000 156.000000 145.000000 129.000000 121.000000 254.000000 
-1.000000 0.000000 0.125000 172.000000 134.000000 123.000000 152.000000 135.000000 251.000000 
1.000000 0.000000 -0.125000 185.000000 147.000000 136.000000 145.000000 131.000000 253.000000 
0.125000 0.000000 -0.125000 174.000000 132.000000 116.000000 127.000000 140.000000 254.000000 
0.125000 0.000000 1.000000 153.000000 115.000000 104.000000 158.000000 128.000000 250.000000 
0.125000 0.000000 -1.000000 183.000000 156.000000 145.000000 129.000000 121.000000 254.000000 
-1.000000 0.000000 -0.125000 185.000000 147.000000 136.000000 145.000000 131.000000 253.000000 
1.000000 0.000000 0.125000 183.000000 156.000000 145.000000 129.000000 121.000000 254.000000 
-0.125000 0.000000 0.125000 172.000000 134.000000 123.000000 152.000000 135.000000 251.000000 
0.125000 0.000000 0.000000 175.000000 137.000000 126.000000 152.000000 132.000000 252.000000 
0.000000 0.000000 0.125000 172.000000 134.000000 123.000000 152.000000 135.000000 251.000000 
0.875000 0.000000 0.125000 172.000000 134.000000 123.000000 152.000000 135.000000 251.000000 
0.000000 0.000000 -0.875000 174.000000 132.000000 116.000000 127.000000 140.000000 254.000000 
-0.125000 0.000000 -0.875000 181.000000 144.000000 126.000000 142.000000 149.000000 251.000000 
-0.125000 0.000000 0.000000 172.000000 134.000000 123.000000 152.000000 135.000000 251.000000 
-0.125000 0.000000 0.500000 172.000000 134.000000 123.000000 152.000000 135.000000 251.000000 
-0.500000 0.000000 0.875000 172.000000 134.000000 123.000000 152.000000 135.000000 251.000000 
-0.375000 0.000000 0.875000 172.000000 134.000000 123.000000 152.000000 135.000000 251.000000 
-0.500000 0.000000 -0.625000 172.000000 134.000000 123.000000 152.000000 135.000000 251.000000 
-0.875000 0.000000 -0.625000 181.000000 144.000000 126.000000 142.000000 149.000000 251.000000 
-0.875000 0.000000 -0.500000 181.000000 144.000000 126.000000 142.000000 149.000000 251.000000 
0.875000 0.000000 -0.500000 172.000000 134.000000 123.000000 152.000000 135.000000 251.000000 
0.500000 0.000000 -0.125000 175.000000 137.000000 126.000000 152.000000 132.000000 252.000000 
0.625000 0.000000 -0.125000 181.000000 144.000000 126.000000 142.000000 149.000000 251.000000 
0.500000 0.000000 0.375000 175.000000 137.000000 126.000000 152.000000 132.000000 252.000000 
0.125000 0.000000 0.375000 175.000000 137.000000 126.000000 152.000000 132.000000 252.000000 
0.125000 0.000000 0.500000 181.000000 144.000000 126.000000 142.000000 149.000000 251.000000 
0.875000 0.000000 0.500000 175.000000 137.000000 126.000000 152.000000 132.000000 252.000000 
0.500000 0.000000 0.875000 172.000000 134.000000 123.000000 152.000000 135.000000 251.000000 
0.625000 0.000000 0.875000 181.000000 144.000000 126.000000 142.000000 149.000000 251.000000 
0.500000 0.000000 -0.625000 172.000000 134.000000 123.000000 152.000000 135.000000 251.000000 
0.125000 0.000000 -0.625000 172.000000 134.000000 123.000000 152.000000 135.000000 251.000000 
0.125000 0.000000 -0.500000 172.000000 134.000000 123.000000 152.000000 135.000000 251.000000 
-0.375000 0.000000 -0.125000 169.000000 131.000000 120.000000 151.000000 134.000000 252.000000 
-0.375000 0.000000 -0.500000 175.000000 137.000000 126.000000 152.000000 132.000000 252.000000 
-0.500000 0.000000 -0.375000 175.000000 137.000000 126.000000 152.000000 132.000000 252.000000 
-0.500000 0.000000 0.375000 174.000000 130.000000 117.000000 127.000000 131.000000 254.000000 
-0.875000 0.000000 0.375000 175.000000 137.000000 126.000000 152.000000 132.000000 252.000000 
-0.875000 0.000000 0.500000 175.000000 137.000000 126.000000 152.000000 132.000000 252.000000 
-0.625000 0.000000 1.000000 195.000000 157.000000 146.000000 146.000000 124.000000 253.000000 
-0.625000 0.000000 -1.000000 189.000000 151.000000 140.000000 147.000000 128.000000 252.000000 
-1.000000 0.000000 0.625000 185.000000 147.000000 136.000000 145.000000 131.000000 253.000000 
1.000000 0.000000 -0.625000 183.000000 156.000000 145.000000 129.000000 121.000000 254.000000 
0.625000 0.000000 -0.625000 181.000000 144.000000 126.000000 142.000000 149.000000 251.000000 
0.625000 0.000000 1.000000 195.000000 157.000000 146.000000 146.000000 124.000000 253.000000 
0.625000 0.000000 -1.000000 183.000000 156.000000 145.000000 129.000000 121.000000 254.000000 
-1.000000 0.000000 -0.625000 185.000000 147.000000 136.000000 145.000000 131.000000 253.000000 
1.000000 0.000000 0.625000 183.000000 156.000000 145.000000 129.000000 121.000000 254.000000 
-0.625000 0.000000 0.625000 175.000000 137.000000 126.000000 152.000000 132.000000 252.000000 
0.625000 0.000000 0.000000 178.000000 141.000000 123.000000 125.000000 133.000000 254.000000 
0.000000 0.000000 0.625000 172.000000 134.000000 123.000000 152.000000 135.000000 251.000000 
0.375000 0.000000 0.625000 181.000000 144.000000 126.000000 142.000000 149.000000 251.000000 
0.000000 0.000000 -0.375000 175.000000 137.000000 126.000000 152.000000 132.000000 252.000000 
-0.625000 0.000000 -0.375000 172.000000 134.000000 123.000000 152.000000 135.000000 251.000000 
-0.625000 0.000000 0.000000 175.000000 137.000000 126.000000 152.000000 132.000000 252.000000 
-0.375000 0.000000 1.000000 195.000000 157.000000 146.000000 146.000000 124.000000 253.000000 
-0.375000 0.000000 -1.000000 183.000000 156.000000 145.000000 129.000000 121.000000 254.000000 
-1.000000 0.000000 0.375000 175.000000 137.000000 126.000000 152.000000 132.000000 252.000000 
1.000000 0.000000 -0.375000 185.000000 147.000000 136.000000 145.000000 131.000000 253.000000 
0.375000 0.000000 -0.375000 175.000000 137.000000 126.000000 152.000000 132.000000 252.000000 
0.375000 0.000000 1.000000 195.000000 157.000000 146.000000 146.000000 124.000000 253.000000 
0.375000 0.000000 -1.000000 183.000000 156.000000 145.000000 129.000000 121.000000 254.000000 
-1.000000 0.000000 -0.375000 185.000000 147.000000 136.000000 145.000000 131.000000 253.000000 
1.000000 0.000000 0.375000 183.000000 156.000000 145.000000 129.000000 121.000000 254.000000 
-0.375000 0.000000 0.375000 179.000000 142.000000 124.000000 127.000000 131.000000 255.000000 
0.375000 0.000000 0.000000 185.000000 147.000000 136.000000 145.000000 131.000000 253.000000 
0.000000 0.000000 0.375000 185.000000 147.000000 136.000000 145.000000 131.000000 253.000000 
0.625000 0.000000 0.375000 175.000000 137.000000 126.000000 152.000000 132.000000 252.000000 
0.000000 0.000000 -0.625000 175.000000 137.000000 126.000000 152.000000 132.000000 252.000000 
-0.375000 0.000000 -0.625000 175.000000 137.000000 126.000000 152.000000 132.000000 252.000000 
-0.375000 0.000000 0.000000 175.000000 137.000000 126.000000 152.000000 132.000000 252.000000 
-0.375000 0.000000 0.500000 172.000000 134.000000 123.000000 152.000000 135.000000 251.000000 
-0.500000 0.000000 0.625000 172.000000 134.000000 123.000000 152.000000 135.000000 251.000000 
-0.125000 0.000000 0.625000 172.000000 134.000000 123.000000 152.000000 135.000000 251.000000 
-0.500000 0.000000 -0.875000 181.000000 144.000000 126.000000 142.000000 149.000000 251.000000 
-0.625000 0.000000 -0.875000 181.000000 144.000000 126.000000 142.000000 149.000000 251.000000 
-0.625000 0.000000 -0.500000 172.000000 134.000000 123.000000 152.000000 135.000000 251.000000 
0.625000 0.000000 -0.500000 172.000000 134.000000 123.000000 152.000000 135.000000 251.000000 
0.500000 0.000000 -0.375000 167.000000 116.000000 97.000000 127.000000 138.000000 254.000000 
0.875000 0.000000 -0.375000 172.000000 134.000000 123.000000 152.000000 135.000000 251.000000 
0.500000 0.000000 0.125000 181.000000 144.000000 126.000000 142.000000 149.000000 251.000000 
0.375000 0.000000 0.125000 178.000000 141.000000 123.000000 125.000000 133.000000 254.000000 
0.375000 0.000000 0.500000 181.000000 144.000000 126.000000 142.000000 149.000000 251.000000 
0.625000 0.000000 0.500000 175.000000 137.000000 126.000000 152.000000 132.000000 252.000000 
0.500000 0.000000 0.625000 181.000000 144.000000 126.000000 142.000000 149.000000 251.000000 
0.875000 0.000000 0.625000 172.000000 134.000000 123.000000 152.000000 135.000000 251.000000 
0.500000 0.000000 -0.875000 172.000000 134.000000 123.000000 152.000000 135.000000 251.000000 
0.375000 0.000000 -0.875000 179.000000 140.000000 123.000000 128.000000 133.000000 254.000000 
0.375000 0.000000 -0.500000 172.000000 134.000000 123.000000 152.000000 135.000000 251.000000 
-0.125000 0.000000 -0.375000 175.000000 137.000000 126.000000 152.000000 132.000000 252.000000 
-0.125000 0.000000 -0.500000 175.000000 137.000000 126.000000 152.000000 132.000000 252.000000 
-0.500000 0.000000 -0.125000 172.000000 134.000000 123.000000 152.000000 135.000000 251.000000 
-0.500000 0.000000 0.125000 179.000000 140.000000 123.000000 128.000000 133.000000 254.000000 
-0.625000 0.000000 0.125000 175.000000 137.000000 126.000000 152.000000 132.000000 252.000000 
-0.625000 0.000000 0.500000 175.000000 137.000000 126.000000 152.000000 132.000000 252.000000 
-0.625000 0.000000 0.750000 181.000000 144.000000 126.000000 142.000000 149.000000 251.000000 
-0.750000 0.000000 0.875000 172.000000 134.000000 123.000000 152.000000 135.000000 251.000000 
-0.625000 0.000000 0.875000 172.000000 134.000000 123.000000 152.000000 135.000000 251.000000 
-0.750000 0.000000 -0.875000 181.000000 144.000000 126.000000 142.000000 149.000000 251.000000 
-0.875000 0.000000 -0.875000 178.000000 141.000000 123.000000 125.000000 133.000000 254.000000 
-0.875000 0.000000 -0.750000 175.000000 137.000000 126.000000 152.000000 132.000000 252.000000 
0.375000 0.000000 -0.250000 181.000000 144.000000 126.000000 142.000000 149.000000 251.000000 
0.250000 0.000000 -0.125000 172.000000 134.000000 123.000000 152.000000 135.000000 251.000000 
0.375000 0.000000 -0.125000 172.000000 134.000000 123.000000 152.000000 135.000000 251.000000 
0.250000 0.000000 0.125000 179.000000 140.000000 123.000000 128.000000 133.000000 254.000000 
0.125000 0.000000 0.125000 179.000000 140.000000 123.000000 128.000000 133.000000 254.000000 
0.125000 0.000000 0.250000 175.000000 137.000000 126.000000 152.000000 132.000000 252.000000 
0.375000 0.000000 0.750000 175.000000 137.000000 126.000000 152.000000 132.000000 252.000000 
0.250000 0.000000 0.875000 172.000000 134.000000 123.000000 152.000000 135.000000 251.000000 
0.375000 0.000000 0.875000 178.000000 141.000000 123.000000 125.000000 133.000000 254.000000 
0.250000 0.000000 -0.875000 172.000000 134.000000 123.000000 152.000000 135.000000 251.000000 
0.125000 0.000000 -0.875000 175.000000 137.000000 126.000000 152.000000 132.000000 252.000000 
0.125000 0.000000 -0.750000 175.000000 137.000000 126.000000 152.000000 132.000000 252.000000 
-0.125000 0.000000 -0.625000 175.000000 137.000000 126.000000 152.000000 132.000000 252.000000 
-0.125000 0.000000 -0.750000 172.000000 134.000000 123.000000 152.000000 135.000000 251.000000 
-0.250000 0.000000 -0.625000 195.000000 157.000000 146.000000 146.000000 124.000000 253.000000 
-0.750000 0.000000 0.125000 185.000000 147.000000 136.000000 145.000000 131.000000 253.000000 
-0.875000 0.000000 0.125000 175.000000 137.000000 126.000000 152.000000 132.000000 252.000000 
-0.875000 0.000000 0.250000 175.000000 137.000000 126.000000 152.000000 132.000000 252.000000 
-0.125000 0.000000 0.250000 172.000000 134.000000 123.000000 152.000000 135.000000 251.000000 
-0.250000 0.000000 0.375000 153.000000 115.000000 104.000000 158.000000 128.000000 250.000000 
-0.125000 0.000000 0.375000 185.000000 147.000000 136.000000 145.000000 131.000000 253.000000 
-0.250000 0.000000 0.625000 181.000000 144.000000 126.000000 142.000000 149.000000 251.000000 
-0.375000 0.000000 0.625000 175.000000 137.000000 126.000000 152.000000 132.000000 252.000000 
-0.375000 0.000000 0.750000 181.000000 144.000000 126.000000 142.000000 149.000000 251.000000 
-0.125000 0.000000 0.750000 172.000000 134.000000 123.000000 152.000000 135.000000 251.000000 
-0.250000 0.000000 0.875000 172.000000 134.000000 123.000000 152.000000 135.000000 251.000000 
-0.125000 0.000000 0.875000 181.000000 144.000000 126.000000 142.000000 149.000000 251.000000 
-0.250000 0.000000 -0.875000 172.000000 134.000000 123.000000 152.000000 135.000000 251.000000 
-0.375000 0.000000 -0.875000 172.000000 134.000000 123.000000 152.000000 135.000000 251.000000 
-0.375000 0.000000 -0.750000 175.000000 137.000000 126.000000 152.000000 132.000000 252.000000 
-0.625000 0.000000 -0.625000 181.000000 144.000000 126.000000 142.000000 149.000000 251.000000 
-0.625000 0.000000 -0.750000 181.000000 144.000000 126.000000 142.000000 149.000000 251.000000 
-0.750000 0.000000 -0.625000 181.000000 144.000000 126.000000 142.000000 149.000000 251.000000 
-0.750000 0.000000 -0.375000 172.000000 134.000000 123.000000 152.000000 135.000000 251.000000 
-0.875000 0.000000 -0.375000 184.000000 144.000000 134.000000 130.000000 122.000000 254.000000 
-0.875000 0.000000 -0.250000 192.000000 153.000000 136.000000 138.000000 118.000000 254.000000 
0.875000 0.000000 -0.750000 184.000000 144.000000 134.000000 130.000000 122.000000 254.000000 
0.750000 0.000000 -0.625000 178.000000 141.000000 123.000000 125.000000 133.000000 254.000000 
0.875000 0.000000 -0.625000 172.000000 134.000000 123.000000 152.000000 135.000000 251.000000 
0.750000 0.000000 -0.375000 181.000000 144.000000 126.000000 142.000000 149.000000 251.000000 
0.625000 0.000000 -0.375000 181.000000 144.000000 126.000000 142.000000 149.000000 251.000000 
0.625000 0.000000 -0.250000 181.000000 144.000000 126.000000 142.000000 149.000000 251.000000 
0.875000 0.000000 -0.250000 181.000000 144.000000 126.000000 142.000000 149.000000 251.000000 
0.750000 0.000000 -0.125000 181.000000 144.000000 126.000000 142.000000 149.000000 251.000000 
0.875000 0.000000 -0.125000 181.000000 144.000000 126.000000 142.000000 149.000000 251.000000 
0.750000 0.000000 0.125000 181.000000 144.000000 126.000000 142.000000 149.000000 251.000000 
0.625000 0.000000 0.125000 181.000000 144.000000 126.000000 142.000000 149.000000 251.000000 
0.625000 0.000000 0.250000 175.000000 137.000000 126.000000 152.000000 132.000000 252.000000 
0.375000 0.000000 0.375000 175.000000 137.000000 126.000000 152.000000 132.000000 252.000000 
0.375000 0.000000 0.250000 181.000000 144.000000 126.000000 142.000000 149.000000 251.000000 
0.250000 0.000000 0.375000 181.000000 144.000000 126.000000 142.000000 149.000000 251.000000 
0.250000 0.000000 0.625000 172.000000 134.000000 123.000000 152.000000 135.000000 251.000000 
0.125000 0.000000 0.625000 172.000000 134.000000 123.000000 152.000000 135.000000 251.000000 
0.125000 0.000000 0.750000 181.000000 144.000000 126.000000 142.000000 149.000000 251.000000 
0.875000 0.000000 0.250000 175.000000 137.000000 126.000000 152.000000 132.000000 252.000000 
0.750000 0.000000 0.375000 172.000000 134.000000 123.000000 152.000000 135.000000 251.000000 
0.875000 0.000000 0.375000 172.000000 134.000000 123.000000 152.000000 135.000000 251.000000 
0.750000 0.000000 0.625000 172.000000 134.000000 123.000000 152.000000 135.000000 251.000000 
0.625000 0.000000 0.625000 181.000000 144.000000 126.000000 142.000000 149.000000 251.000000 
0.625000 0.000000 0.750000 175.000000 137.000000 126.000000 152.000000 132.000000 252.000000 
0.875000 0.000000 0.750000 172.000000 134.000000 123.000000 152.000000 135.000000 251.000000 
0.750000 0.000000 0.875000 179.000000 142.000000 124.000000 127.000000 131.000000 255.000000 
0.875000 0.000000 0.875000 181.000000 144.000000 126.000000 142.000000 149.000000 251.000000 
0.750000 0.000000 -0.875000 175.000000 137.000000 126.000000 152.000000 132.000000 252.000000 
0.625000 0.000000 -0.875000 189.000000 151.000000 142.000000 125.000000 115.000000 254.000000 
0.625000 0.000000 -0.750000 172.000000 134.000000 123.000000 152.000000 135.000000 251.000000 
0.375000 0.000000 -0.625000 181.000000 144.000000 126.000000 142.000000 149.000000 251.000000 
0.375000 0.000000 -0.750000 175.000000 137.000000 126.000000 152.000000 132.000000 252.000000 
0.250000 0.000000 -0.625000 172.000000 134.000000 123.000000 152.000000 135.000000 251.000000 
0.250000 0.000000 -0.375000 175.000000 137.000000 126.000000 152.000000 132.000000 252.000000 
0.125000 0.000000 -0.375000 175.000000 137.000000 126.000000 152.000000 132.000000 252.000000 
0.125000 0.000000 -0.250000 174.000000 132.000000 116.000000 127.000000 140.000000 254.000000 
-0.125000 0.000000 -0.125000 177.000000 136.000000 132.000000 103.000000 129.000000 252.000000 
-0.125000 0.000000 -0.250000 185.000000 147.000000 136.000000 145.000000 131.000000 253.000000 
-0.250000 0.000000 -0.125000 195.000000 157.000000 146.000000 146.000000 124.000000 253.000000 
-0.375000 0.000000 -0.250000 185.000000 147.000000 136.000000 145.000000 131.000000 253.000000 
-0.250000 0.000000 -0.375000 195.000000 157.000000 146.000000 146.000000 124.000000 253.000000 
-0.375000 0.000000 -0.375000 175.000000 137.000000 126.000000 152.000000 132.000000 252.000000 
-0.625000 0.000000 -0.125000 175.000000 137.000000 126.000000 152.000000 132.000000 252.000000 
-0.625000 0.000000 -0.250000 175.000000 137.000000 126.000000 152.000000 132.000000 252.000000 
-0.750000 0.000000 -0.125000 175.000000 137.000000 126.000000 152.000000 132.000000 252.000000 
-0.250000 0.000000 0.125000 175.000000 137.000000 126.000000 152.000000 132.000000 252.000000 
-0.375000 0.000000 0.125000 175.000000 137.000000 126.000000 152.000000 132.000000 252.000000 
-0.375000 0.000000 0.250000 174.000000 132.000000 116.000000 127.000000 140.000000 254.000000 
-0.625000 0.000000 0.375000 174.000000 132.000000 116.000000 127.000000 140.000000 254.000000 
-0.625000 0.000000 0.250000 185.000000 147.000000 136.000000 145.000000 131.000000 253.000000 
-0.750000 0.000000 0.375000 195.000000 157.000000 146.000000 146.000000 124.000000 253.000000 
-0.750000 0.000000 0.625000 185.000000 147.000000 136.000000 145.000000 131.000000 253.000000 
-0.875000 0.000000 0.625000 172.000000 134.000000 123.000000 152.000000 135.000000 251.000000 
-0.875000 0.000000 0.750000 195.000000 157.000000 146.000000 146.000000 124.000000 253.000000 
3 1 81 90 
3 3 88 82 
3 8 107 101 
3 8 108 107 
3 4 102 93 
3 5 110 103 
3 5 111 110 
3 6 99 96 
3 18 169 162 
3 18 170 169 
3 9 153 115 
3 10 172 154 
3 10 173 172 
3 16 160 118 
3 13 175 141 
3 13 176 175 
3 19 147 121 
3 19 178 147 
3 19 179 178 
3 20 148 124 
3 21 181 165 
3 21 182 181 
3 14 142 127 
3 15 184 143 
3 15 185 184 
3 22 150 130 
3 22 187 150 
3 22 188 187 
3 23 151 133 
3 24 190 168 
3 24 191 190 
3 11 139 136 
3 34 193 146 
3 34 194 193 
3 25 137 195 
3 26 196 138 
3 26 197 196 
3 32 144 198 
3 45 199 157 
3 45 200 199 
3 51 163 201 
3 51 202 163 
3 51 203 202 
3 52 164 204 
3 37 205 149 
3 37 206 205 
3 46 158 207 
3 47 208 159 
3 47 209 208 
3 54 166 210 
3 54 211 166 
3 54 212 211 
3 55 167 213 
3 40 214 152 
3 40 215 214 
3 43 155 216 
3 50 217 106 
3 50 218 217 
3 57 113 219 
3 57 220 113 
3 57 221 220 
3 58 114 222 
3 59 223 171 
3 59 224 223 
3 41 97 225 
3 42 226 98 
3 42 227 226 
3 60 116 228 
3 60 229 116 
3 60 230 229 
3 61 117 231 
3 62 232 174 
3 62 233 232 
3 48 104 234 
3 29 235 85 
3 29 236 235 
3 63 119 237 
3 63 238 119 
3 63 239 238 
3 64 120 240 
3 65 241 177 
3 65 242 241 
3 35 91 243 
3 35 244 91 
3 35 245 244 
3 66 122 246 
3 66 247 122 
3 66 248 247 
3 67 123 249 
3 68 250 180 
3 68 251 250 
3 36 92 252 
3 53 253 109 
3 53 254 253 
3 69 125 255 
3 69 256 125 
3 69 257 256 
3 70 126 258 
3 71 259 183 
3 71 260 259 
3 30 86 261 
3 31 262 87 
3 31 263 262 
3 72 128 264 
3 72 265 128 
3 72 266 265 
3 73 129 267 
3 74 268 186 
3 74 269 268 
3 38 94 270 
3 38 271 94 
3 38 272 271 
3 75 131 273 
3 75 274 131 
3 75 275 274 
3 76 132 276 
3 77 277 189 
3 77 278 277 
3 39 95 279 
3 56 280 112 
3 56 281 280 
3 78 134 282 
3 78 283 134 
3 78 284 283 
3 79 135 285 
3 80 286 192 
3 80 287 286 
3 27 83 288 
3 90 194 34 
3 90 81 194 
3 81 25 194 
3 82 197 26 
3 82 88 197 
3 88 32 197 
3 101 200 45 
3 101 107 200 
3 107 51 200 
3 107 203 51 
3 107 108 203 
3 108 52 203 
3 93 206 37 
3 93 102 206 
3 102 46 206 
3 103 209 47 
3 103 110 209 
3 110 54 209 
3 110 212 54 
3 110 111 212 
3 111 55 212 
3 96 215 40 
3 96 99 215 
3 99 43 215 
3 162 218 50 
3 162 169 218 
3 169 57 218 
3 169 221 57 
3 169 170 221 
3 170 58 221 
3 115 224 59 
3 115 153 224 
3 153 41 224 
3 154 227 42 
3 154 172 227 
3 172 60 227 
3 172 230 60 
3 172 173 230 
3 173 61 230 
3 118 233 62 
3 118 160 233 
3 160 48 233 
3 141 236 29 
3 141 175 236 
3 175 63 236 
3 175 239 63 
3 175 176 239 
3 176 64 239 
3 121 242 65 
3 121 147 242 
3 147 35 242 
3 147 245 35 
3 147 178 245 
3 178 66 245 
3 178 248 66 
3 178 179 248 
3 179 67 248 
3 124 251 68 
3 124 148 251 
3 148 36 251 
3 165 254 53 
3 165 181 254 
3 181 69 254 
3 181 257 69 
3 181 182 257 
3 182 70 257 
3 127 260 71 
3 127 142 260 
3 142 30 260 
3 143 263 31 
3 143 184 263 
3 184 72 263 
3 184 266 72 
3 184 185 266 
3 185 73 266 
3 130 269 74 
3 130 150 269 
3 150 38 269 
3 150 272 38 
3 150 187 272 
3 187 75 272 
3 187 275 75 
3 187 188 275 
3 188 76 275 
3 133 278 77 
3 133 151 278 
3 151 39 278 
3 168 281 56 
3 168 190 281 
3 190 78 281 
3 190 284 78 
3 190 191 284 
3 191 79 284 
3 136 287 80 
3 136 139 287 
3 139 27 287 
3 146 170 18 
3 146 193 170 
3 193 58 170 
3 193 195 58 
3 193 194 195 
3 194 25 195 
3 195 114 58 
3 195 137 114 
3 137 9 114 
3 138 173 10 
3 138 196 173 
3 196 61 173 
3 196 198 61 
3 196 197 198 
3 197 32 198 
3 198 117 61 
3 198 144 117 
3 144 16 117 
3 157 176 13 
3 157 199 176 
3 199 64 176 
3 199 201 64 
3 199 200 201 
3 200 51 201 
3 201 120 64 
3 201 163 120 
3 163 19 120 
3 163 179 19 
3 163 202 179 
3 202 67 179 
3 202 204 67 
3 202 203 204 
3 203 52 204 
3 204 123 67 
3 204 164 123 
3 164 20 123 
3 149 182 21 
3 149 205 182 
3 205 70 182 
3 205 207 70 
3 205 206 207 
3 206 46 207 
3 207 126 70 
3 207 158 126 
3 158 14 126 
3 159 185 15 
3 159 208 185 
3 208 73 185 
3 208 210 73 
3 208 209 210 
3 209 54 210 
3 210 129 73 
3 210 166 129 
3 166 22 129 
3 166 188 22 
3 166 211 188 
3 211 76 188 
3 211 213 76 
3 211 212 213 
3 212 55 213 
3 213 132 76 
3 213 167 132 
3 167 23 132 
3 152 191 24 
3 152 214 191 
3 214 79 191 
3 214 216 79 
3 214 215 216 
3 215 43 216 
3 216 135 79 
3 216 155 135 
3 155 11 135 
3 106 108 8 
3 106 217 108 
3 217 52 108 
3 217 219 52 
3 217 218 219 
3 218 57 219 
3 219 164 52 
3 219 113 164 
3 113 20 164 
3 113 171 20 
3 113 220 171 
3 220 59 171 
3 220 222 59 
3 220 221 222 
3 221 58 222 
3 222 115 59 
3 222 114 115 
3 114 9 115 
3 171 148 20 
3 171 223 148 
3 223 36 148 
3 223 225 36 
3 223 224 225 
3 224 41 225 
3 225 92 36 
3 225 97 92 
3 97 4 92 
3 98 111 5 
3 98 226 111 
3 226 55 111 
3 226 228 55 
3 226 227 228 
3 227 60 228 
3 228 167 55 
3 228 116 167 
3 116 23 167 
3 116 174 23 
3 116 229 174 
3 229 62 174 
3 229 231 62 
3 229 230 231 
3 230 61 231 
3 231 118 62 
3 231 117 118 
3 117 16 118 
3 174 151 23 
3 174 232 151 
3 232 39 151 
3 232 234 39 
3 232 233 234 
3 233 48 234 
3 234 95 39 
3 234 104 95 
3 104 6 95 
3 85 84 2 
3 85 235 84 
3 235 28 84 
3 235 237 28 
3 235 236 237 
3 236 63 237 
3 237 140 28 
3 237 119 140 
3 119 12 140 
3 119 177 12 
3 119 238 177 
3 238 65 177 
3 238 240 65 
3 238 239 240 
3 239 64 240 
3 240 121 65 
3 240 120 121 
3 120 19 121 
3 177 156 12 
3 177 241 156 
3 241 44 156 
3 241 243 44 
3 241 242 243 
3 242 35 243 
3 243 100 44 
3 243 91 100 
3 91 7 100 
3 91 109 7 
3 91 244 109 
3 244 53 109 
3 244 246 53 
3 244 245 246 
3 245 66 246 
3 246 165 53 
3 246 122 165 
3 122 21 165 
3 122 180 21 
3 122 247 180 
3 247 68 180 
3 247 249 68 
3 247 248 249 
3 248 67 249 
3 249 124 68 
3 249 123 124 
3 123 20 124 
3 180 149 21 
3 180 250 149 
3 250 37 149 
3 250 252 37 
3 250 251 252 
3 251 36 252 
3 252 93 37 
3 252 92 93 
3 92 4 93 
3 109 105 7 
3 109 253 105 
3 253 49 105 
3 253 255 49 
3 253 254 255 
3 254 69 255 
3 255 161 49 
3 255 125 161 
3 125 17 161 
3 125 183 17 
3 125 256 183 
3 256 71 183 
3 256 258 71 
3 256 257 258 
3 257 70 258 
3 258 127 71 
3 258 126 127 
3 126 14 127 
3 183 145 17 
3 183 259 145 
3 259 33 145 
3 259 261 33 
3 259 260 261 
3 260 30 261 
3 261 89 33 
3 261 86 89 
3 86 0 89 
3 87 85 2 
3 87 262 85 
3 262 29 85 
3 262 264 29 
3 262 263 264 
3 263 72 264 
3 264 141 29 
3 264 128 141 
3 128 13 141 
3 128 186 13 
3 128 265 186 
3 265 74 186 
3 265 267 74 
3 265 266 267 
3 266 73 267 
3 267 130 74 
3 267 129 130 
3 129 22 130 
3 186 157 13 
3 186 268 157 
3 268 45 157 
3 268 270 45 
3 268 269 270 
3 269 38 270 
3 270 101 45 
3 270 94 101 
3 94 8 101 
3 94 112 8 
3 94 271 112 
3 271 56 112 
3 271 273 56 
3 271 272 273 
3 272 75 273 
3 273 168 56 
3 273 131 168 
3 131 24 168 
3 131 189 24 
3 131 274 189 
3 274 77 189 
3 274 276 77 
3 274 275 276 
3 275 76 276 
3 276 133 77 
3 276 132 133 
3 132 23 133 
3 189 152 24 
3 189 277 152 
3 277 40 152 
3 277 279 40 
3 277 278 279 
3 278 39 279 
3 279 96 40 
3 279 95 96 
3 95 6 96 
3 112 106 8 
3 112 280 106 
3 280 50 106 
3 280 282 50 
3 280 281 282 
3 281 78 282 
3 282 162 50 
3 282 134 162 
3 134 18 162 
3 134 192 18 
3 134 283 192 
3 283 80 192 
3 283 285 80 
3 283 284 285 
3 284 79 285 
3 285 136 80 
3 285 135 136 
3 135 11 136 
3 192 146 18 
3 192 286 146 
3 286 34 146 
3 286 288 34 
3 286 287 288 
3 287 27 288 
3 288 90 34 
3 288 83 90 
3 83 1 90 
